<svg width="29" height="21" viewBox="0 0 29 21" fill="none" xmlns="http://www.w3.org/2000/svg">
<path id="Vector" d="M27.7205 10.8402L15.1219 0.332566C14.5913 -0.110855 13.5722 -0.110855 13.0417 0.332566L0.443111 10.8402C0.26177 10.9911 0.142739 11.1783 0.100491 11.379C0.0582435 11.5797 0.094599 11.7853 0.205138 11.9708C0.429113 12.3501 0.930257 12.5939 1.48319 12.5939H4.28288V19.9492C4.28288 20.2279 4.43037 20.4952 4.69289 20.6922C4.95541 20.8893 5.31146 21 5.68273 21H9.88226C10.2535 21 10.6096 20.8893 10.8721 20.6922C11.1346 20.4952 11.2821 20.2279 11.2821 19.9492V15.7462H16.8815V19.9492C16.8815 20.2279 17.029 20.4952 17.2915 20.6922C17.554 20.8893 17.9101 21 18.2813 21H22.4808C22.8521 21 23.2082 20.8893 23.4707 20.6922C23.7332 20.4952 23.8807 20.2279 23.8807 19.9492V12.5939H26.6804C26.9515 12.5948 27.2171 12.5364 27.4447 12.4259C27.6724 12.3155 27.8524 12.1577 27.9626 11.9717C28.0729 11.7858 28.1087 11.5799 28.0657 11.3789C28.0227 11.178 27.9027 10.9908 27.7205 10.8402Z" fill="black"/>
</svg>
