<svg width="18" height="17" viewBox="0 0 18 17" fill="none" xmlns="http://www.w3.org/2000/svg">
<g clip-path="url(#clip0_226_812)">
<path d="M8.41109 6.2234L9.23997 7.45149L10.0688 6.2234C10.6747 5.32578 11.7684 4.71997 13.0581 4.71997C15.0821 4.71997 16.64 6.27088 16.64 8.03997C16.64 8.80096 16.2635 9.66589 15.5381 10.5985C14.8226 11.5185 13.8447 12.4048 12.8292 13.1882C11.8191 13.9674 10.8038 14.6205 10.038 15.08C9.72241 15.2693 9.45089 15.4248 9.24173 15.5416C9.03234 15.4238 8.76037 15.2671 8.44421 15.0763C7.6781 14.6139 6.66234 13.9572 5.65183 13.1755C4.6358 12.3895 3.65733 11.5017 2.94132 10.5827C2.2148 9.65017 1.83997 8.79025 1.83997 8.03997C1.83997 6.27088 3.39782 4.71997 5.42178 4.71997C6.71149 4.71997 7.80526 5.32578 8.41109 6.2234Z" stroke="black" stroke-width="2"/>
</g>
<defs>
<clipPath id="clip0_226_812">
<rect width="17.28" height="15.84" fill="white" transform="translate(0.359985 0.839966)"/>
</clipPath>
</defs>
</svg>
