<svg width="27" height="22" viewBox="0 0 27 22" fill="none" xmlns="http://www.w3.org/2000/svg">
<g id="Group">
<path id="Vector" d="M13.5 20.625C10.3671 20.625 7.36257 19.6109 5.1473 17.8059C2.93203 16.0009 1.6875 13.5527 1.6875 11C1.6875 8.44729 2.93203 5.99913 5.1473 4.1941C7.36257 2.38906 10.3671 1.375 13.5 1.375C16.6329 1.375 19.6374 2.38906 21.8527 4.1941C24.068 5.99913 25.3125 8.44729 25.3125 11C25.3125 13.5527 24.068 16.0009 21.8527 17.8059C19.6374 19.6109 16.6329 20.625 13.5 20.625ZM13.5 22C17.0804 22 20.5142 20.8411 23.0459 18.7782C25.5777 16.7153 27 13.9174 27 11C27 8.08262 25.5777 5.28473 23.0459 3.22183C20.5142 1.15893 17.0804 0 13.5 0C9.91958 0 6.4858 1.15893 3.95406 3.22183C1.42232 5.28473 0 8.08262 0 11C0 13.9174 1.42232 16.7153 3.95406 18.7782C6.4858 20.8411 9.91958 22 13.5 22Z" fill="black"/>
<path id="Vector_2" d="M7.23093 13.1546C7.42472 13.0635 7.65502 13.0388 7.87117 13.0859C8.08732 13.1331 8.2716 13.2483 8.3835 13.4062C8.90175 14.1382 9.64752 14.746 10.5457 15.1684C11.444 15.5909 12.4629 15.813 13.5 15.8125C14.5371 15.813 15.556 15.5909 16.4543 15.1684C17.3525 14.746 18.0982 14.1382 18.6165 13.4062C18.6715 13.3274 18.7451 13.2583 18.833 13.2027C18.921 13.1472 19.0215 13.1063 19.1289 13.0826C19.2363 13.0588 19.3484 13.0526 19.4587 13.0643C19.5691 13.076 19.6755 13.1053 19.7719 13.1507C19.8682 13.196 19.9526 13.2564 20.0202 13.3284C20.0878 13.4005 20.1373 13.4827 20.1657 13.5703C20.1941 13.658 20.201 13.7494 20.186 13.8392C20.1709 13.929 20.1341 14.0155 20.0779 14.0938C19.4115 15.0347 18.4527 15.8161 17.298 16.3592C16.1432 16.9023 14.8333 17.188 13.5 17.1875C12.1667 17.188 10.8568 16.9023 9.70201 16.3592C8.54727 15.8161 7.58848 15.0347 6.92212 14.0938C6.81024 13.9358 6.77992 13.7482 6.83783 13.5721C6.89574 13.396 7.03715 13.2458 7.23093 13.1546ZM11.8125 8.9375C11.8125 10.076 11.0565 11 10.125 11C9.1935 11 8.4375 10.076 8.4375 8.9375C8.4375 7.799 9.1935 6.875 10.125 6.875C11.0565 6.875 11.8125 7.799 11.8125 8.9375ZM18.5625 8.9375C18.5625 10.076 17.8065 11 16.875 11C15.9435 11 15.1875 10.076 15.1875 8.9375C15.1875 7.799 15.9435 6.875 16.875 6.875C17.8065 6.875 18.5625 7.799 18.5625 8.9375Z" fill="black"/>
</g>
</svg>
