<svg width="0" height="0" class="hidden">
  <symbol xmlns="http://www.w3.org/2000/svg" viewBox="0 0 28 21" id="icon-book">
    <path id="Vector" d="M0 2.625C0 2.625 2.1 0 7 0C11.9 0 14 2.625 14 2.625V21C14 21 11.9 19.6875 7 19.6875C2.1 19.6875 0 21 0 21V2.625ZM14 2.625C14 2.625 16.1 0 21 0C25.9 0 28 2.625 28 2.625V21C28 21 25.9 19.6875 21 19.6875C16.1 19.6875 14 21 14 21V2.625Z"></path>
  </symbol>
  <symbol xmlns="http://www.w3.org/2000/svg" viewBox="0 0 28 21" id="icon-heart">
    <path id="Vector" d="M7.7 1.68037e-06C3.4475 1.68037e-06 0 3.01302 0 6.72959C0 13.4592 9.1 19.577 14 21C18.9 19.577 28 13.4592 28 6.72959C28 3.01302 24.5525 1.68037e-06 20.3 1.68037e-06C17.696 1.68037e-06 15.393 1.12996 14 2.85947C13.29 1.97557 12.3467 1.25421 11.2501 0.756461C10.1534 0.258714 8.93571 -0.00076189 7.7 1.68037e-06Z"></path>
  </symbol>
  <symbol xmlns="http://www.w3.org/2000/svg" viewBox="0 0 29 21" id="icon-house">
    <path id="Vector" d="M27.7205 10.8402L15.1219 0.332566C14.5913 -0.110855 13.5722 -0.110855 13.0417 0.332566L0.443111 10.8402C0.26177 10.9911 0.142739 11.1783 0.100491 11.379C0.0582435 11.5797 0.094599 11.7853 0.205138 11.9708C0.429113 12.3501 0.930257 12.5939 1.48319 12.5939H4.28288V19.9492C4.28288 20.2279 4.43037 20.4952 4.69289 20.6922C4.95541 20.8893 5.31146 21 5.68273 21H9.88226C10.2535 21 10.6096 20.8893 10.8721 20.6922C11.1346 20.4952 11.2821 20.2279 11.2821 19.9492V15.7462H16.8815V19.9492C16.8815 20.2279 17.029 20.4952 17.2915 20.6922C17.554 20.8893 17.9101 21 18.2813 21H22.4808C22.8521 21 23.2082 20.8893 23.4707 20.6922C23.7332 20.4952 23.8807 20.2279 23.8807 19.9492V12.5939H26.6804C26.9515 12.5948 27.2171 12.5364 27.4447 12.4259C27.6724 12.3155 27.8524 12.1577 27.9626 11.9717C28.0729 11.7858 28.1087 11.5799 28.0657 11.3789C28.0227 11.178 27.9027 10.9908 27.7205 10.8402Z"></path>
  </symbol>
  <symbol xmlns="http://www.w3.org/2000/svg" viewBox="0 0 27 22" id="icon-smile">
    <g id="Group">
      <path id="Vector" d="M13.5 20.625C10.3671 20.625 7.36257 19.6109 5.1473 17.8059C2.93203 16.0009 1.6875 13.5527 1.6875 11C1.6875 8.44729 2.93203 5.99913 5.1473 4.1941C7.36257 2.38906 10.3671 1.375 13.5 1.375C16.6329 1.375 19.6374 2.38906 21.8527 4.1941C24.068 5.99913 25.3125 8.44729 25.3125 11C25.3125 13.5527 24.068 16.0009 21.8527 17.8059C19.6374 19.6109 16.6329 20.625 13.5 20.625ZM13.5 22C17.0804 22 20.5142 20.8411 23.0459 18.7782C25.5777 16.7153 27 13.9174 27 11C27 8.08262 25.5777 5.28473 23.0459 3.22183C20.5142 1.15893 17.0804 0 13.5 0C9.91958 0 6.4858 1.15893 3.95406 3.22183C1.42232 5.28473 0 8.08262 0 11C0 13.9174 1.42232 16.7153 3.95406 18.7782C6.4858 20.8411 9.91958 22 13.5 22Z"></path>
      <path id="Vector_2" d="M7.23093 13.1546C7.42472 13.0635 7.65502 13.0388 7.87117 13.0859C8.08732 13.1331 8.2716 13.2483 8.3835 13.4062C8.90175 14.1382 9.64752 14.746 10.5457 15.1684C11.444 15.5909 12.4629 15.813 13.5 15.8125C14.5371 15.813 15.556 15.5909 16.4543 15.1684C17.3525 14.746 18.0982 14.1382 18.6165 13.4062C18.6715 13.3274 18.7451 13.2583 18.833 13.2027C18.921 13.1472 19.0215 13.1063 19.1289 13.0826C19.2363 13.0588 19.3484 13.0526 19.4587 13.0643C19.5691 13.076 19.6755 13.1053 19.7719 13.1507C19.8682 13.196 19.9526 13.2564 20.0202 13.3284C20.0878 13.4005 20.1373 13.4827 20.1657 13.5703C20.1941 13.658 20.201 13.7494 20.186 13.8392C20.1709 13.929 20.1341 14.0155 20.0779 14.0938C19.4115 15.0347 18.4527 15.8161 17.298 16.3592C16.1432 16.9023 14.8333 17.188 13.5 17.1875C12.1667 17.188 10.8568 16.9023 9.70201 16.3592C8.54727 15.8161 7.58848 15.0347 6.92212 14.0938C6.81024 13.9358 6.77992 13.7482 6.83783 13.5721C6.89574 13.396 7.03715 13.2458 7.23093 13.1546ZM11.8125 8.9375C11.8125 10.076 11.0565 11 10.125 11C9.1935 11 8.4375 10.076 8.4375 8.9375C8.4375 7.799 9.1935 6.875 10.125 6.875C11.0565 6.875 11.8125 7.799 11.8125 8.9375ZM18.5625 8.9375C18.5625 10.076 17.8065 11 16.875 11C15.9435 11 15.1875 10.076 15.1875 8.9375C15.1875 7.799 15.9435 6.875 16.875 6.875C17.8065 6.875 18.5625 7.799 18.5625 8.9375Z"></path>
    </g>
  </symbol>

  <symbol xmlns="http://www.w3.org/2000/svg" viewBox="0 0 18 17" id="icon-like">
    <g clip-path="url(#clip0_226_812)">
      <path d="M8.41109 6.2234L9.23997 7.45149L10.0688 6.2234C10.6747 5.32578 11.7684 4.71997 13.0581 4.71997C15.0821 4.71997 16.64 6.27088 16.64 8.03997C16.64 8.80096 16.2635 9.66589 15.5381 10.5985C14.8226 11.5185 13.8447 12.4048 12.8292 13.1882C11.8191 13.9674 10.8038 14.6205 10.038 15.08C9.72241 15.2693 9.45089 15.4248 9.24173 15.5416C9.03234 15.4238 8.76037 15.2671 8.44421 15.0763C7.6781 14.6139 6.66234 13.9572 5.65183 13.1755C4.6358 12.3895 3.65733 11.5017 2.94132 10.5827C2.2148 9.65017 1.83997 8.79025 1.83997 8.03997C1.83997 6.27088 3.39782 4.71997 5.42178 4.71997C6.71149 4.71997 7.80526 5.32578 8.41109 6.2234Z" stroke="black" stroke-width="2"></path>
    </g>
    <defs>
      <clipPath id="clip0_226_812">
        <rect width="17.28" height="15.84" transform="translate(0.359985 0.839966)"></rect>
      </clipPath>
    </defs>
  </symbol>
</svg>